<svg width="372" height="69" viewBox="0 0 372 69" fill="none" xmlns="http://www.w3.org/2000/svg">
<path d="M202.735 66.4163C196.775 66.4163 191.257 64.9705 186.182 62.0789C181.166 59.1874 177.183 55.2041 174.232 50.1291C171.341 45.0541 169.895 39.448 169.895 33.3108C169.895 27.1736 171.341 21.5675 174.232 16.4925C177.183 11.4175 181.166 7.4342 186.182 4.54263C191.257 1.65106 196.775 0.205273 202.735 0.205273C207.397 0.205273 211.763 1.03144 215.835 2.68376C219.966 4.33608 223.359 6.66704 226.015 9.67664L220.615 15.0762C218.609 12.5977 216.012 10.7093 212.826 9.41108C209.698 8.05382 206.334 7.37518 202.735 7.37518C198.309 7.37518 194.149 8.4669 190.254 10.6503C186.418 12.7747 183.32 15.8138 180.959 19.7676C178.658 23.6624 177.507 28.1768 177.507 33.3108C177.507 38.4448 178.658 42.9887 180.959 46.9425C183.32 50.8372 186.418 53.8763 190.254 56.0597C194.149 58.1842 198.309 59.2464 202.735 59.2464C206.984 59.2464 210.524 58.5972 213.357 57.299C216.248 55.9417 218.756 54.1714 220.881 51.9879C222.415 50.3356 223.654 48.3292 224.599 45.9688C225.543 43.6083 226.103 41.0413 226.28 38.2677H202.912V31.2749H233.362C233.657 32.9272 233.804 34.4615 233.804 35.8778C233.804 39.7725 233.185 43.5788 231.945 47.2965C230.706 50.9552 228.729 54.1714 226.015 56.9449C220.055 63.2592 212.295 66.4163 202.735 66.4163ZM244.74 1.62155H263.949C270.44 1.62155 276.105 2.97882 280.944 5.69335C285.783 8.34888 289.501 12.0666 292.097 16.8465C294.694 21.6265 295.992 27.1146 295.992 33.3108C295.992 39.507 294.694 44.9951 292.097 49.775C289.501 54.5549 285.783 58.3022 280.944 61.0167C276.105 63.6722 270.44 65 263.949 65H244.74V1.62155ZM263.949 57.8301C271.443 57.8301 277.374 55.6762 281.741 51.3683C286.107 47.0605 288.291 41.0413 288.291 33.3108C288.291 25.5803 286.107 19.5611 281.741 15.2532C277.374 10.9454 271.443 8.79146 263.949 8.79146H252.264V57.8301H263.949ZM336.548 66.4163C330.588 66.4163 325.07 64.9705 319.995 62.0789C314.979 59.1874 310.996 55.2041 308.046 50.1291C305.154 45.0541 303.708 39.448 303.708 33.3108C303.708 27.1736 305.154 21.5675 308.046 16.4925C310.996 11.4175 314.979 7.4342 319.995 4.54263C325.07 1.65106 330.588 0.205273 336.548 0.205273C341.21 0.205273 345.577 1.03144 349.649 2.68376C353.779 4.33608 357.173 6.66704 359.828 9.67664L354.429 15.0762C352.422 12.5977 349.826 10.7093 346.639 9.41108C343.511 8.05382 340.148 7.37518 336.548 7.37518C332.122 7.37518 327.962 8.4669 324.067 10.6503C320.231 12.7747 317.133 15.8138 314.773 19.7676C312.471 23.6624 311.321 28.1768 311.321 33.3108C311.321 38.4448 312.471 42.9887 314.773 46.9425C317.133 50.8372 320.231 53.8763 324.067 56.0597C327.962 58.1842 332.122 59.2464 336.548 59.2464C340.797 59.2464 344.338 58.5972 347.17 57.299C350.062 55.9417 352.57 54.1714 354.694 51.9879C356.228 50.3356 357.468 48.3292 358.412 45.9688C359.356 43.6083 359.917 41.0413 360.094 38.2677H336.725V31.2749H367.175C367.47 32.9272 367.618 34.4615 367.618 35.8778C367.618 39.7725 366.998 43.5788 365.759 47.2965C364.52 50.9552 362.543 54.1714 359.828 56.9449C353.868 63.2592 346.108 66.4163 336.548 66.4163Z" fill="white"/>
<path fill-rule="evenodd" clip-rule="evenodd" d="M123.139 30.4233C125.823 35.1026 124.23 41.0861 119.58 43.7877L85.2421 63.7383C80.5921 66.44 74.6463 64.8367 71.9616 60.1573C69.277 55.478 70.8702 49.4945 75.5201 46.7929L109.858 26.8423C114.508 24.1407 120.454 25.7439 123.139 30.4233Z" fill="#FABB04"/>
<path fill-rule="evenodd" clip-rule="evenodd" d="M71.9621 10.4727C74.6467 5.79335 80.5926 4.19009 85.2425 6.89172L119.581 26.8423C124.231 29.5439 125.824 35.5274 123.139 40.2067C120.455 44.8861 114.509 46.4894 109.859 43.7877L75.5205 23.8372C70.8706 21.1355 69.2774 15.1521 71.9621 10.4727Z" fill="#0F9D57"/>
<path fill-rule="evenodd" clip-rule="evenodd" d="M56.0382 10.4728C58.7229 15.1521 57.1297 21.1356 52.4797 23.8372L18.1415 43.7878C13.4916 46.4894 7.54569 44.8862 4.86104 40.2068C2.17639 35.5275 3.76958 29.544 8.41953 26.8424L42.7578 6.89179C47.4077 4.19016 53.3536 5.79343 56.0382 10.4728Z" fill="#EA4335"/>
<path fill-rule="evenodd" clip-rule="evenodd" d="M56.0384 60.1574C53.3538 64.8368 47.4079 66.44 42.758 63.7384L8.41973 43.7878C3.76979 41.0862 2.1766 35.1027 4.86125 30.4234C7.54589 25.744 13.4918 24.1408 18.1417 26.8424L52.4799 46.793C57.1299 49.4946 58.7231 55.4781 56.0384 60.1574Z" fill="#4285F4"/>
</svg>
